<?xml version="1.0" standalone="no"?>
<!DOCTYPE svg PUBLIC "-//W3C//DTD SVG 20010904//EN"
 "http://www.w3.org/TR/2001/REC-SVG-20010904/DTD/svg10.dtd">
<svg version="1.0" xmlns="http://www.w3.org/2000/svg"
 width="16.000000pt" height="16.000000pt" viewBox="0 0 16.000000 16.000000"
 preserveAspectRatio="xMidYMid meet">
<metadata>
Created by potrace 1.11, written by Peter Selinger 2001-2013
</metadata>
<g transform="translate(0.000000,16.000000) scale(0.002640,-0.002640)"
fill="#000000" stroke="none">
<path d="M2720 5789 c-406 -58 -648 -129 -952 -278 -56 -29 -125 -65 -153 -82
-27 -16 -58 -32 -67 -36 -10 -3 -18 -9 -18 -13 0 -4 -20 -17 -45 -30 -24 -12
-53 -31 -64 -41 -11 -11 -25 -19 -31 -19 -5 0 -10 -4 -10 -9 0 -5 -8 -12 -17
-15 -10 -3 -29 -16 -43 -29 -14 -13 -33 -28 -42 -33 -36 -20 -138 -113 -273
-248 -160 -161 -324 -372 -408 -526 -11 -19 -27 -46 -37 -60 -24 -35 -105
-208 -150 -320 -147 -370 -210 -734 -197 -1135 17 -509 142 -932 399 -1354
151 -246 359 -493 558 -661 35 -30 73 -63 84 -73 33 -29 205 -149 281 -195
298 -184 663 -318 1030 -378 133 -22 566 -31 707 -14 248 28 451 75 663 155
152 57 317 132 323 147 2 4 11 8 20 8 10 0 28 9 42 20 14 11 31 20 38 20 6 0
12 5 12 10 0 6 7 10 15 10 8 0 15 3 15 8 0 4 15 14 33 22 17 7 41 22 51 32 11
10 26 18 33 18 7 0 13 5 13 10 0 6 7 10 15 10 8 0 15 5 15 10 0 6 5 10 11 10
6 0 16 6 23 12 7 7 28 24 46 38 38 28 92 72 100 80 3 3 30 25 60 50 71 59 243
230 300 300 25 30 47 57 50 60 15 14 124 165 172 240 72 110 114 184 167 295
24 50 47 98 52 107 5 10 9 23 9 28 0 6 9 30 20 52 11 23 20 50 20 60 0 10 5
18 10 18 6 0 10 9 10 20 0 25 23 100 30 100 3 0 7 12 8 27 1 16 7 40 13 55 6
14 9 37 7 50 -5 26 -9 19 -28 -52 -6 -25 -16 -53 -21 -62 -5 -10 -9 -26 -9
-36 0 -10 -9 -36 -20 -58 -18 -37 -19 -38 -20 -11 0 15 5 27 10 27 6 0 10 12
10 28 0 15 5 43 10 62 16 54 37 171 61 340 25 181 30 564 10 735 -28 226 -99
510 -183 723 -208 533 -606 1005 -1098 1302 -286 172 -607 293 -920 344 -209
34 -257 38 -555 42 -170 2 -317 7 -325 11 -18 8 39 17 240 39 125 14 174 15
350 5 268 -16 323 -21 334 -32 13 -12 86 -12 86 0 0 5 -17 11 -37 14 -21 3
-60 11 -88 17 -27 6 -84 16 -125 21 -103 14 -551 19 -630 8z m-153 -85 c-3 -3
-12 -4 -19 -1 -8 3 -5 6 6 6 11 1 17 -2 13 -5z m788 -268 c519 -83 966 -304
1334 -661 403 -390 658 -908 726 -1475 17 -137 19 -412 5 -548 -61 -572 -318
-1105 -726 -1502 -141 -138 -165 -160 -173 -160 -4 0 -27 -18 -51 -40 -25 -22
-49 -40 -54 -40 -5 0 -16 -8 -25 -17 -18 -20 -67 -52 -93 -60 -10 -3 -18 -9
-18 -14 0 -5 -6 -9 -13 -9 -7 0 -23 -9 -35 -20 -12 -11 -28 -20 -37 -20 -8 0
-15 -4 -15 -10 0 -5 -9 -10 -20 -10 -11 0 -20 -3 -20 -7 0 -9 -49 -33 -67 -33
-7 0 -13 -4 -13 -10 0 -5 -6 -10 -13 -10 -8 0 -27 -6 -43 -14 -59 -28 -101
-45 -164 -66 -36 -12 -74 -25 -85 -30 -21 -8 -57 -18 -165 -46 -206 -52 -578
-77 -810 -54 -247 25 -479 81 -690 168 -128 52 -304 145 -350 184 -11 10 -25
18 -30 18 -6 0 -10 5 -10 10 0 6 -6 10 -14 10 -8 0 -16 3 -18 8 -1 4 -23 18
-48 31 -25 13 -74 45 -110 70 -74 53 -380 350 -380 370 0 7 -6 11 -14 8 -7 -3
-13 0 -12 7 1 12 -5 22 -78 119 -20 26 -36 51 -36 56 0 4 -9 16 -20 26 -11 10
-20 22 -20 26 0 5 -17 35 -39 68 -21 33 -49 83 -62 110 -20 42 -28 49 -44 44
-17 -5 -18 -4 -7 10 14 17 7 41 -9 32 -5 -3 -6 1 -3 10 7 17 -22 85 -37 85 -5
0 -7 11 -3 27 6 22 4 25 -10 20 -13 -5 -15 -2 -10 18 4 18 1 27 -10 31 -11 4
-14 13 -10 29 3 13 1 26 -5 29 -6 4 -11 2 -11 -3 0 -6 -4 -11 -10 -11 -6 0 -5
11 2 26 10 22 10 28 -6 39 -12 9 -16 20 -11 35 4 11 2 26 -3 33 -5 7 -12 29
-16 50 -4 21 -10 35 -15 33 -4 -3 -5 8 -3 24 3 20 -2 34 -17 46 -14 13 -17 21
-10 30 10 12 5 52 -22 189 -6 28 -13 131 -16 230 -6 204 8 369 47 575 6 30 14
72 17 93 3 20 9 40 14 43 5 3 9 15 9 26 0 23 17 81 31 110 5 10 9 27 9 37 0
11 5 23 10 26 6 3 10 15 10 26 0 10 4 27 9 37 8 16 13 27 40 95 42 103 187
371 210 387 4 3 10 12 13 20 6 15 116 165 153 209 114 133 288 303 344 335 8
5 26 20 39 33 12 13 26 23 30 23 4 0 21 12 37 28 16 15 32 26 35 25 3 -1 14 5
25 15 11 9 41 28 65 41 25 14 48 29 52 35 4 6 8 7 8 2 0 -5 9 -1 20 9 11 10
20 14 20 10 0 -4 8 -1 18 7 34 29 334 154 427 179 17 4 62 17 100 28 68 21
314 66 405 75 100 9 498 -3 595 -18z m-2305 -741 c-7 -9 -15 -13 -17 -11 -6 6
20 36 26 30 2 -2 -2 -10 -9 -19z m-38 -43 c-7 -2 -12 -10 -12 -17 0 -7 -4 -15
-8 -17 -4 -1 -46 -61 -93 -133 -84 -128 -125 -198 -179 -305 -5 -11 -14 -28
-19 -37 -14 -28 -37 -82 -66 -158 -15 -38 -31 -78 -36 -87 -5 -10 -9 -27 -9
-37 0 -11 -4 -23 -10 -26 -5 -3 -10 -19 -10 -35 0 -16 -4 -31 -9 -34 -4 -3
-11 -22 -14 -43 -4 -21 -11 -58 -17 -83 -6 -25 -15 -65 -20 -90 -5 -25 -13
-65 -19 -90 -22 -95 -35 -252 -35 -435 1 -219 17 -377 55 -545 6 -25 13 -58
15 -75 3 -16 10 -40 16 -52 6 -12 8 -29 5 -37 -4 -9 -2 -16 3 -16 4 0 12 -14
15 -32 4 -18 11 -39 15 -48 18 -36 30 -89 24 -104 -4 -11 -2 -16 7 -14 10 2
13 -6 11 -25 -2 -17 1 -26 7 -23 16 10 23 -12 11 -34 -7 -13 -7 -20 0 -20 5 0
10 6 10 13 0 8 4 7 10 -3 5 -8 7 -23 4 -34 -4 -12 -2 -16 5 -12 14 9 15 -33 1
-54 -8 -13 -10 -12 -10 3 0 9 -4 17 -10 17 -5 0 -10 14 -10 31 0 16 -4 28 -8
25 -4 -2 -14 10 -21 27 -43 107 -47 116 -66 167 -107 280 -164 658 -151 985
20 466 144 868 382 1237 51 80 143 198 153 198 4 0 25 18 47 40 22 22 41 34
43 28 2 -7 -1 -14 -7 -16z m-321 -2783 c-9 -23 -10 -23 -10 -2 -1 12 2 30 6
40 6 15 8 15 11 2 1 -8 -2 -26 -7 -40z m26 -26 c-14 -31 -19 -24 -11 16 4 21
10 28 14 20 5 -7 3 -23 -3 -36z m14 -50 c-9 -16 -10 -16 -11 -1 0 9 3 25 7 35
7 16 8 17 11 1 2 -10 -1 -25 -7 -35z m19 -30 c-11 -17 -11 -17 -6 0 3 10 7 26
7 35 1 15 2 15 6 0 2 -10 -1 -25 -7 -35z m27 -15 c-3 -8 -6 -5 -6 6 -1 11 2
17 5 13 3 -3 4 -12 1 -19z m20 -40 c-3 -7 -5 -2 -5 12 0 14 2 19 5 13 2 -7 2
-19 0 -25z m20 -30 c-3 -8 -6 -5 -6 6 -1 11 2 17 5 13 3 -3 4 -12 1 -19z m20
-30 c-3 -8 -6 -5 -6 6 -1 11 2 17 5 13 3 -3 4 -12 1 -19z m20 -30 c-3 -8 -6
-5 -6 6 -1 11 2 17 5 13 3 -3 4 -12 1 -19z m20 -30 c-3 -8 -6 -5 -6 6 -1 11 2
17 5 13 3 -3 4 -12 1 -19z m48 -47 c3 -5 1 -12 -5 -16 -5 -3 -10 1 -10 9 0 18
6 21 15 7z m420 -471 c3 -5 1 -10 -4 -10 -6 0 -11 5 -11 10 0 6 2 10 4 10 3 0
8 -4 11 -10z m512 -346 c-3 -3 -12 -4 -19 -1 -8 3 -5 6 6 6 11 1 17 -2 13 -5z
m40 -20 c-3 -3 -12 -4 -19 -1 -8 3 -5 6 6 6 11 1 17 -2 13 -5z m40 -20 c-3 -3
-12 -4 -19 -1 -8 3 -5 6 6 6 11 1 17 -2 13 -5z m46 -21 c-7 -2 -19 -2 -25 0
-7 3 -2 5 12 5 14 0 19 -2 13 -5z m44 -19 c-3 -3 -12 -4 -19 -1 -8 3 -5 6 6 6
11 1 17 -2 13 -5z m50 -20 c-3 -3 -12 -4 -19 -1 -8 3 -5 6 6 6 11 1 17 -2 13
-5z m56 -21 c-7 -2 -19 -2 -25 0 -7 3 -2 5 12 5 14 0 19 -2 13 -5z"/>
<path d="M3675 4793 c-61 -23 -93 -28 -240 -34 -229 -11 -331 -22 -515 -59
-177 -35 -355 -84 -402 -110 -10 -6 -22 -10 -28 -10 -23 0 -271 -120 -301
-146 -8 -8 -19 -14 -22 -14 -4 0 -33 -17 -65 -37 -75 -50 -79 -53 -181 -142
-47 -41 -61 -60 -61 -81 0 -32 49 -80 80 -80 10 0 56 28 102 63 103 78 121 89
233 148 220 115 508 206 790 248 44 7 88 14 98 16 56 11 43 -11 -78 -136 -135
-140 -226 -265 -285 -393 -33 -72 -129 -323 -290 -761 -54 -145 -218 -567
-270 -690 -16 -38 -48 -115 -70 -169 -57 -135 -170 -370 -221 -458 -101 -175
-223 -338 -252 -338 -7 0 -24 -6 -39 -14 -26 -14 -127 -14 -170 0 -10 3 -18 1
-18 -5 0 -6 -7 -11 -15 -11 -9 0 -15 -10 -15 -26 0 -14 -4 -23 -10 -19 -6 4
-10 -9 -9 -32 0 -30 2 -34 9 -18 7 17 9 14 9 -13 1 -29 6 -36 41 -50 33 -14
40 -21 34 -37 -15 -49 -15 -72 -1 -84 23 -18 209 -15 277 5 53 15 219 97 230
113 3 4 25 21 50 38 77 53 191 171 288 298 51 67 150 248 182 330 4 11 12 32
19 48 6 15 16 39 22 55 7 15 16 37 20 50 17 43 31 77 40 94 5 10 9 27 9 37 0
11 5 23 10 26 6 3 10 15 10 26 0 10 4 19 9 19 5 0 11 12 14 28 5 29 39 124 47
132 3 3 7 16 8 30 2 14 8 29 13 34 5 6 9 18 9 28 0 10 4 18 8 18 4 0 9 12 10
27 1 15 7 32 12 37 6 6 10 18 10 27 0 10 6 20 13 23 6 3 3 5 -8 3 -14 -1 -21
-11 -23 -30 -2 -15 -7 -27 -11 -27 -4 0 -14 -23 -21 -51 -8 -27 -18 -52 -22
-55 -4 -3 -8 -16 -8 -30 0 -13 -4 -24 -10 -24 -5 0 -10 -8 -11 -17 0 -10 -9
-36 -19 -58 -17 -38 -19 -38 -19 -12 -1 15 4 27 9 27 6 0 10 10 10 23 0 22 44
166 61 199 5 10 9 25 9 33 0 8 4 23 9 33 15 27 81 263 111 392 14 61 52 185
160 515 94 286 215 542 336 708 39 54 97 107 116 107 16 0 7 -32 -17 -64 -14
-18 -25 -38 -25 -44 0 -6 -3 -12 -7 -14 -23 -10 -166 -283 -225 -428 -6 -14
-14 -33 -19 -42 -12 -24 -11 -48 1 -48 6 0 10 6 10 14 0 8 9 31 19 53 10 21
47 97 82 168 91 185 169 313 238 388 40 44 60 46 231 22 276 -37 401 -125 446
-313 17 -74 17 -121 -1 -240 -31 -209 -102 -392 -195 -502 -80 -95 -121 -131
-172 -147 -10 -3 -18 -9 -18 -14 0 -5 -9 -9 -19 -9 -11 0 -22 -4 -25 -8 -3 -5
-38 -19 -78 -31 -40 -13 -82 -27 -93 -32 -11 -4 -38 -10 -60 -14 -22 -3 -67
-10 -100 -15 -33 -5 -125 -13 -205 -16 -119 -5 -151 -10 -177 -26 -50 -30 -41
-75 26 -136 80 -72 189 -96 381 -82 190 14 293 33 435 82 74 25 229 98 233
109 2 5 10 9 18 9 8 0 14 5 14 10 0 6 7 10 15 10 8 0 15 5 15 10 0 6 5 10 11
10 18 0 223 199 285 276 108 137 203 324 164 324 -5 0 -10 -6 -10 -14 0 -29
-90 -183 -135 -232 l-26 -28 7 45 c4 24 22 82 40 129 48 121 74 231 81 340 13
226 -61 367 -244 463 -167 87 -312 136 -496 167 -114 19 -177 41 -177 60 0 17
79 51 104 44 14 -3 33 -1 43 5 16 9 15 10 -8 11 -14 0 -46 2 -70 4 -31 3 -64
-3 -114 -21z m-65 -77 c0 -18 -45 -54 -75 -62 -13 -3 -40 3 -61 14 -74 37
-138 37 -397 3 -32 -4 -54 -4 -50 0 18 17 342 55 496 58 69 1 87 -2 87 -13z
m-297 -1543 c-7 -2 -21 -2 -30 0 -10 3 -4 5 12 5 17 0 24 -2 18 -5z m-643
-690 c0 -5 -5 -15 -10 -23 -8 -12 -10 -11 -10 8 0 12 5 22 10 22 6 0 10 -3 10
-7z m-28 -75 c-9 -9 -12 -7 -12 12 0 19 3 21 12 12 9 -9 9 -15 0 -24z m-21
-55 c-9 -16 -10 -14 -11 12 0 21 3 26 11 18 8 -8 8 -16 0 -30z m-24 -45 c-3
-8 -6 -5 -6 6 -1 11 2 17 5 13 3 -3 4 -12 1 -19z m-20 -50 c-3 -8 -6 -5 -6 6
-1 11 2 17 5 13 3 -3 4 -12 1 -19z"/>
<path d="M3789 4760 l-24 -19 78 -1 c45 0 89 -6 105 -14 15 -7 70 -16 122 -20
52 -3 99 -11 104 -16 6 -6 28 -10 51 -9 40 1 40 1 10 10 -102 32 -244 57 -333
60 -43 2 -66 7 -69 16 -7 18 -17 16 -44 -7z"/>
<path d="M4270 4670 c0 -5 12 -10 28 -9 24 0 25 1 7 9 -27 12 -35 12 -35 0z"/>
<path d="M4330 4650 c0 -5 10 -10 23 -10 18 0 19 2 7 10 -19 13 -30 13 -30 0z"/>
<path d="M4388 4623 c6 -2 18 -2 25 0 6 3 1 5 -13 5 -14 0 -19 -2 -12 -5z"/>
<path d="M4425 4610 c-4 -6 3 -10 14 -10 25 0 27 6 6 13 -8 4 -17 2 -20 -3z"/>
<path d="M4484 4575 c36 -19 47 -19 22 0 -11 8 -27 15 -35 15 -9 0 -3 -7 13
-15z"/>
<path d="M4587 4490 c32 -34 66 -77 77 -96 10 -19 21 -32 24 -29 6 6 -15 49
-38 79 -31 40 -100 106 -111 106 -6 0 15 -27 48 -60z"/>
<path d="M4690 4335 c0 -8 5 -15 10 -15 6 0 10 7 10 15 0 8 -4 15 -10 15 -5 0
-10 -7 -10 -15z"/>
<path d="M4711 4273 c0 -10 4 -27 9 -38 7 -16 9 -13 9 18 1 20 -3 37 -9 37 -5
0 -10 -8 -9 -17z"/>
<path d="M4716 3978 c-3 -13 -1 -27 4 -32 7 -7 10 1 10 22 0 37 -5 41 -14 10z"/>
<path d="M3176 3895 c-3 -8 -1 -15 4 -15 6 0 10 7 10 15 0 8 -2 15 -4 15 -2 0
-6 -7 -10 -15z"/>
<path d="M4701 3874 c0 -11 3 -14 6 -6 3 7 2 16 -1 19 -3 4 -6 -2 -5 -13z"/>
<path d="M3056 3551 c-4 -7 -5 -15 -2 -18 9 -9 19 4 14 18 -4 11 -6 11 -12 0z"/>
<path d="M3035 3491 c-3 -5 -1 -12 5 -16 5 -3 10 1 10 9 0 18 -6 21 -15 7z"/>
<path d="M3016 3441 c-4 -7 -5 -15 -2 -18 9 -9 19 4 14 18 -4 11 -6 11 -12 0z"/>
<path d="M2995 3381 c-3 -5 -1 -12 5 -16 5 -3 10 1 10 9 0 18 -6 21 -15 7z"/>
<path d="M2977 3325 c-4 -8 -2 -17 3 -20 6 -4 10 3 10 14 0 25 -6 27 -13 6z"/>
<path d="M2954 3269 c-3 -6 -1 -16 5 -22 8 -8 11 -5 11 11 0 24 -5 28 -16 11z"/>
<path d="M2935 3220 c-3 -5 -1 -18 4 -27 9 -16 10 -14 11 10 0 28 -5 34 -15
17z"/>
<path d="M2917 3163 c-4 -3 -7 -17 -7 -29 0 -13 -4 -26 -10 -29 -5 -3 -10 -16
-10 -28 0 -29 14 -11 30 41 13 40 11 60 -3 45z"/>
<path d="M2876 3035 c-4 -11 -12 -28 -17 -37 -12 -23 -12 -38 1 -38 6 0 10 8
10 18 0 10 5 23 11 29 6 6 9 19 6 29 -4 18 -4 18 -11 -1z"/>
<path d="M2836 2925 c-4 -11 -12 -28 -17 -37 -12 -23 -12 -48 1 -48 6 0 10 8
10 18 0 10 5 23 11 29 6 6 9 21 7 34 -4 23 -5 23 -12 4z"/>
<path d="M1673 1076 c-10 -11 -7 -19 12 -40 13 -14 33 -26 45 -26 11 0 20 -5
20 -10 0 -6 6 -5 14 2 12 11 10 19 -13 50 -27 39 -57 48 -78 24z"/>
<path d="M3610 5719 c0 -10 27 -19 56 -19 14 0 23 4 20 9 -7 11 -76 20 -76 10z"/>
<path d="M3710 5690 c0 -5 13 -10 29 -10 17 0 33 -4 36 -10 3 -5 16 -10 29
-10 12 0 27 -5 33 -11 6 -6 23 -9 39 -7 32 5 32 5 -67 37 -73 23 -99 26 -99
11z"/>
<path d="M3910 5630 c0 -5 6 -10 14 -10 7 0 38 -9 67 -21 30 -12 63 -25 74
-29 56 -22 323 -157 339 -172 11 -10 24 -18 29 -18 4 0 28 -13 52 -30 24 -16
46 -30 50 -30 3 0 20 -13 38 -30 18 -16 38 -30 45 -30 7 0 15 -7 18 -15 3 -8
14 -17 25 -20 10 -4 37 -24 60 -46 22 -21 45 -39 50 -39 16 0 323 -315 379
-389 30 -41 61 -79 68 -86 6 -8 12 -17 12 -22 1 -16 49 -67 57 -60 4 5 3 11
-3 15 -6 4 -26 29 -44 57 -19 27 -41 58 -50 68 -8 10 -22 27 -30 37 -8 9 -26
33 -40 51 -48 66 -296 308 -398 388 -217 170 -435 298 -669 392 -58 23 -79 32
-95 40 -24 12 -48 11 -48 -1z"/>
<path d="M5290 4564 c0 -3 13 -24 28 -47 15 -23 34 -54 41 -69 14 -28 31 -37
31 -18 0 6 -4 10 -10 10 -5 0 -10 5 -10 11 0 6 -13 30 -30 54 -16 24 -30 48
-30 54 0 6 -4 11 -10 11 -5 0 -10 -3 -10 -6z"/>
<path d="M5390 4407 c0 -2 27 -57 60 -122 33 -65 60 -124 60 -132 0 -7 5 -13
10 -13 6 0 10 3 10 7 0 15 -125 262 -132 263 -5 0 -8 -1 -8 -3z"/>
<path d="M5530 4112 c0 -5 9 -27 20 -50 11 -22 20 -46 20 -52 0 -5 4 -18 9
-28 5 -9 13 -26 16 -37 5 -14 9 -16 12 -7 3 8 0 26 -7 40 -7 15 -17 38 -23 52
-5 14 -13 33 -18 42 -5 10 -9 25 -9 33 0 8 -4 15 -10 15 -5 0 -10 -4 -10 -8z"/>
<path d="M5610 3898 c0 -7 5 -20 10 -28 8 -12 10 -9 10 13 0 15 -4 27 -10 27
-5 0 -10 -6 -10 -12z"/>
<path d="M5630 3833 c0 -10 5 -25 10 -33 7 -11 10 -7 10 18 0 17 -4 32 -10 32
-5 0 -10 -8 -10 -17z"/>
<path d="M5650 3761 c0 -11 5 -23 10 -26 6 -4 10 5 10 19 0 14 -4 26 -10 26
-5 0 -10 -9 -10 -19z"/>
<path d="M5670 3676 c0 -14 5 -28 10 -31 6 -4 10 7 10 24 0 17 -4 31 -10 31
-5 0 -10 -11 -10 -24z"/>
<path d="M5693 3604 c-3 -8 -1 -29 5 -47 10 -32 10 -31 11 16 1 48 -5 60 -16
31z"/>
<path d="M5714 3496 c-3 -8 -1 -34 4 -58 l10 -43 1 58 c1 56 -4 71 -15 43z"/>
<path d="M5730 3333 c0 -32 5 -65 10 -73 7 -11 10 5 10 52 0 37 -4 70 -10 73
-6 4 -10 -16 -10 -52z"/>
<path d="M5750 3050 c0 -22 5 -40 10 -40 6 0 10 18 10 40 0 22 -4 40 -10 40
-5 0 -10 -18 -10 -40z"/>
<path d="M5750 2969 c0 -17 4 -28 10 -24 6 3 10 17 10 31 0 13 -4 24 -10 24
-5 0 -10 -14 -10 -31z"/>
<path d="M5738 2790 c-4 -19 -10 -62 -13 -95 -3 -33 -11 -85 -16 -115 -19
-107 -21 -128 -10 -134 7 -5 11 4 11 23 0 17 4 50 10 73 20 91 32 185 28 233
-3 48 -4 49 -10 15z"/>
<path d="M5678 2424 c-5 -4 -8 -23 -8 -43 0 -25 3 -32 11 -24 6 6 9 25 7 43
-2 17 -6 28 -10 24z"/>
</g>
</svg>
